<svg width="260" height="260" viewBox="0 0 260 260" fill="none" xmlns="http://www.w3.org/2000/svg">
<path fillRule="evenodd" clipRule="evenodd" d="M132.721 209.312C167.849 208.699 195.983 188.622 195.562 164.471L194.799 120.74L67.5905 122.96L68.3539 166.691C68.7754 190.843 97.5937 209.925 132.721 209.312Z" fill="black"/>
<path fillRule="evenodd" clipRule="evenodd" d="M65.0105 50.4692C82.5743 50.1626 97.1162 67.3126 97.4908 88.7748L98.1691 127.635L66.3671 128.191C48.8034 128.497 34.2614 111.347 33.8868 89.885C33.5122 68.4228 47.4467 50.7757 65.0105 50.4692Z" fill="#A259FF"/>
<path fillRule="evenodd" clipRule="evenodd" d="M191.966 50.4117C174.402 50.7183 160.459 67.8759 160.823 88.7343L161.483 126.502L193.285 125.947C210.848 125.64 224.791 108.483 224.427 87.6241C224.063 66.7657 209.53 50.1051 191.966 50.4117Z" fill="#FFB031"/>
<path fillRule="evenodd" clipRule="evenodd" d="M128.392 52.0884C145.956 51.7819 160.487 68.3154 160.848 89.0172L161.502 126.501L97.8984 127.611L97.2441 90.1274C96.8828 69.4256 110.828 52.395 128.392 52.0884Z" fill="#F97D92"/>
</svg>
